<svg xmlns="http://www.w3.org/2000/svg" version="1.1" xmlns:xlink="http://www.w3.org/1999/xlink" xmlns:svgjs="http://svgjs.dev/svgjs" width="1920" height="1080" preserveAspectRatio="none" viewBox="0 0 1920 1080"><g mask="url(&quot;#SvgjsMask1102&quot;)" fill="none"><rect width="1920" height="1080" x="0" y="0" fill="rgba(204, 204, 204, 1)"></rect><path d="M0,729.419C135.371,750.3,274.13,676.434,375.563,584.387C470.19,498.516,486.41,362.494,534.705,244.191C580.728,131.454,669.543,26.755,652.421,-93.804C635.293,-214.405,534.392,-302.798,445.234,-385.797C363.558,-461.831,267.247,-514.472,161.682,-550.64C51.987,-588.223,-61.488,-618.289,-175.752,-598.558C-298.281,-577.4,-414.564,-523.258,-503.011,-435.862C-595.548,-344.423,-648.61,-223.763,-682.235,-98.091C-719.268,40.316,-783.871,202.174,-705.886,322.367C-626.671,444.456,-433.895,406.273,-307.819,478.975C-190.861,546.419,-133.433,708.837,0,729.419" fill="#c2c2c2"></path><path d="M1920 1560.926C2052.425 1561.843 2172.67 1713.938 2295.334 1664.031 2413.95 1615.771 2439.451 1456.79 2476.9210000000003 1334.337 2510.611 1224.238 2523.996 1109.186 2499.541 996.675 2476.174 889.172 2421.497 790.405 2342.132 714.221 2266.997 642.098 2164.083 617.45 2066.517 581.009 1960.923 541.569 1857.369 467.46799999999996 1747.369 492.07399999999996 1636.115 516.961 1569.8809999999999 625.858 1492.356 709.4449999999999 1412.056 796.024 1293.868 871.066 1286.5520000000001 988.924 1279.234 1106.81 1413.2649999999999 1181.777 1456.205 1291.808 1503.002 1411.723 1436.656 1594.25 1547.993 1658.854 1661.194 1724.539 1789.125 1560.019 1920 1560.926" fill="#d6d6d6"></path></g><defs><mask id="SvgjsMask1102"><rect width="1920" height="1080" fill="#ffffff"></rect></mask></defs></svg>